<svg width="24" height="30" viewBox="0 0 24 30" fill="none" xmlns="http://www.w3.org/2000/svg">
<path d="M11.6128 30C9.51745 28.2048 7.5752 26.2366 5.80642 24.1162C3.15206 20.9319 1.46598e-06 16.1895 1.46598e-06 11.6704C-0.00235123 6.95066 2.82731 2.69462 7.16856 0.888333C11.5098 -0.917949 16.5069 0.0815712 19.8281 3.42048C22.0121 5.60438 23.2355 8.57507 23.2257 11.6704C23.2257 16.1895 20.0736 20.9319 17.4193 24.1162C15.6505 26.2366 13.7082 28.2048 11.6128 30ZM11.6128 2.48169C7.03398 2.4872 2.46323 7.07131 2.45774 11.6704C2.45774 13.6134 3.33202 16.9777 7.49274 21.9783C8.51822 23.2082 10.4665 25.2411 11.6128 26.3581C12.7593 25.2424 14.7081 23.2112 15.7346 21.9833C19.8937 16.976 20.768 13.6117 20.768 11.6704C20.7625 7.07131 16.1917 2.4872 11.6128 2.48169ZM11.6128 16.2408C8.86416 16.2408 7.06602 14.4313 7.06602 11.6704C7.06602 8.90959 8.86416 7.10005 11.6128 7.10005C14.3615 7.10005 16.1597 8.90959 16.1597 11.6704C16.1597 14.7186 14.685 16.2408 11.6128 16.2408Z" fill="white"/>
</svg>
