<svg width="30" height="30" viewBox="0 0 30 30" fill="none" xmlns="http://www.w3.org/2000/svg">
<path fill-rule="evenodd" clip-rule="evenodd" d="M0 6C0 4.4087 0.632141 2.88258 1.75736 1.75736C2.88258 0.632141 4.4087 0 6 0H24C25.5913 0 27.1174 0.632141 28.2427 1.75736C29.3679 2.88258 30 4.4087 30 6V24C30 25.5913 29.3679 27.1174 28.2427 28.2426C27.1174 29.3679 25.5913 30 24 30H6C4.4087 30 2.88258 29.3679 1.75736 28.2426C0.632141 27.1174 0 25.5913 0 24V6ZM6 3C5.20435 3 4.44129 3.31607 3.87868 3.87868C3.31607 4.44129 3 5.20435 3 6V24C3 24.7956 3.31607 25.5587 3.87868 26.1213C4.44129 26.6839 5.20435 27 6 27H24C24.7957 27 25.5587 26.6839 26.1213 26.1213C26.6839 25.5587 27 24.7956 27 24V6C27 5.20435 26.6839 4.44129 26.1213 3.87868C25.5587 3.31607 24.7957 3 24 3H6ZM15 10.5C13.8065 10.5 12.6619 10.9741 11.818 11.818C10.9741 12.6619 10.5 13.8065 10.5 15C10.5 16.1935 10.9741 17.3381 11.818 18.182C12.6619 19.0259 13.8065 19.5 15 19.5C16.1935 19.5 17.3381 19.0259 18.182 18.182C19.0259 17.3381 19.5 16.1935 19.5 15C19.5 13.8065 19.0259 12.6619 18.182 11.818C17.3381 10.9741 16.1935 10.5 15 10.5ZM7.5 15C7.5 13.0109 8.29018 11.1032 9.6967 9.6967C11.1032 8.29018 13.0109 7.5 15 7.5C16.9891 7.5 18.8968 8.29018 20.3033 9.6967C21.7098 11.1032 22.5 13.0109 22.5 15C22.5 16.9891 21.7098 18.8968 20.3033 20.3033C18.8968 21.7098 16.9891 22.5 15 22.5C13.0109 22.5 11.1032 21.7098 9.6967 20.3033C8.29018 18.8968 7.5 16.9891 7.5 15ZM23.25 9C23.8467 9 24.419 8.76295 24.841 8.34099C25.263 7.91903 25.5 7.34674 25.5 6.75C25.5 6.15326 25.263 5.58097 24.841 5.15901C24.419 4.73705 23.8467 4.5 23.25 4.5C22.6533 4.5 22.081 4.73705 21.659 5.15901C21.2371 5.58097 21 6.15326 21 6.75C21 7.34674 21.2371 7.91903 21.659 8.34099C22.081 8.76295 22.6533 9 23.25 9Z" fill="white"/>
</svg>
