<svg width="30" height="30" viewBox="0 0 30 30" fill="none" xmlns="http://www.w3.org/2000/svg">
<path fill-rule="evenodd" clip-rule="evenodd" d="M10.2604 19.7398C13.8619 23.3413 17.2069 25.3486 19.6959 26.4641C21.8695 27.4383 24.4346 26.6739 26.4342 24.6743L26.891 24.216L21.3972 20.7202C20.3531 22.2428 18.3784 23.1362 16.4068 22.305C14.9137 21.6742 12.9374 20.5959 11.1709 18.8294C9.40436 17.0629 8.32767 15.0866 7.69687 13.5935C6.8641 11.6219 7.75591 9.64716 9.28007 8.60309L5.7843 3.10929L5.32596 3.56607C3.32638 5.56566 2.56353 8.13077 3.53613 10.3044C4.65167 12.7934 6.65902 16.1384 10.2604 19.7398ZM18.4266 29.2996C15.6066 28.0365 11.9446 25.8178 8.06354 21.9367C4.18246 18.0572 1.96381 14.3936 0.699117 11.5737C-0.971085 7.8449 0.554625 3.94517 3.12907 1.36918L3.58585 0.910843C3.91483 0.581646 4.31355 0.33055 4.75258 0.176101C5.19161 0.0216509 5.65972 -0.0322083 6.12235 0.0184993C6.58499 0.0692068 7.03032 0.223187 7.42547 0.469067C7.82062 0.714948 8.15549 1.04645 8.40535 1.43909L12.8023 8.35295C12.9187 8.53635 12.9954 8.74213 13.0274 8.95701C13.0594 9.17189 13.046 9.39108 12.988 9.60045C12.93 9.80982 12.8288 10.0047 12.6908 10.1725C12.5528 10.3403 12.3812 10.4773 12.187 10.5747L11.2035 11.0672C10.5323 11.4028 10.3956 11.9948 10.5587 12.3847C11.0854 13.6323 11.9664 15.2295 13.3678 16.6325C14.7708 18.0339 16.3679 18.9148 17.6155 19.4415C18.0055 19.6062 18.5975 19.4679 18.9331 18.7968L19.4256 17.8133C19.5228 17.6189 19.6597 17.4472 19.8275 17.309C19.9952 17.1709 20.1901 17.0695 20.3994 17.0114C20.6088 16.9532 20.8281 16.9397 21.043 16.9716C21.258 17.0035 21.4638 17.0801 21.6473 17.1965L28.5612 21.5949C28.9538 21.8448 29.2853 22.1797 29.5312 22.5748C29.7771 22.97 29.9311 23.4153 29.9818 23.8779C30.0325 24.3406 29.9786 24.8087 29.8242 25.2477C29.6697 25.6867 29.4186 26.0855 29.0894 26.4144L28.6311 26.8712C26.0567 29.4472 22.1569 30.9714 18.4266 29.2996Z" fill="white"/>
</svg>
