<svg width="30" height="30" viewBox="0 0 30 30" fill="none" xmlns="http://www.w3.org/2000/svg">
<path fill-rule="evenodd" clip-rule="evenodd" d="M0 6C0 4.4087 0.632141 2.88258 1.75736 1.75736C2.88258 0.632141 4.4087 0 6 0H24C25.5913 0 27.1174 0.632141 28.2426 1.75736C29.3679 2.88258 30 4.4087 30 6V24C30 25.5913 29.3679 27.1174 28.2426 28.2426C27.1174 29.3679 25.5913 30 24 30H6C4.4087 30 2.88258 29.3679 1.75736 28.2426C0.632141 27.1174 0 25.5913 0 24V6ZM6 3C5.20435 3 4.44129 3.31607 3.87868 3.87868C3.31607 4.44129 3 5.20435 3 6V24C3 24.7956 3.31607 25.5587 3.87868 26.1213C4.44129 26.6839 5.20435 27 6 27H15V16.5H13.5C13.1022 16.5 12.7206 16.342 12.4393 16.0607C12.158 15.7794 12 15.3978 12 15C12 14.6022 12.158 14.2206 12.4393 13.9393C12.7206 13.658 13.1022 13.5 13.5 13.5H15V11.25C15 9.85761 15.5531 8.52226 16.5377 7.53769C17.5223 6.55312 18.8576 6 20.25 6H21.15C21.5478 6 21.9294 6.15804 22.2107 6.43934C22.492 6.72064 22.65 7.10218 22.65 7.5C22.65 7.89782 22.492 8.27936 22.2107 8.56066C21.9294 8.84196 21.5478 9 21.15 9H20.25C19.9545 9 19.6619 9.0582 19.389 9.17127C19.116 9.28434 18.8679 9.45008 18.659 9.65901C18.4501 9.86794 18.2843 10.116 18.1713 10.389C18.0582 10.6619 18 10.9545 18 11.25V13.5H21.15C21.5478 13.5 21.9294 13.658 22.2107 13.9393C22.492 14.2206 22.65 14.6022 22.65 15C22.65 15.3978 22.492 15.7794 22.2107 16.0607C21.9294 16.342 21.5478 16.5 21.15 16.5H18V27H24C24.7957 27 25.5587 26.6839 26.1213 26.1213C26.6839 25.5587 27 24.7956 27 24V6C27 5.20435 26.6839 4.44129 26.1213 3.87868C25.5587 3.31607 24.7957 3 24 3H6Z" fill="white"/>
</svg>
