<svg width="55" height="51" viewBox="0 0 55 51" fill="none" xmlns="http://www.w3.org/2000/svg">
<path d="M11.7175 48.5686H14.9234C16.852 48.5686 18.2676 48.3822 19.1663 48.0086C20.0672 47.6341 20.7889 47.0406 21.3337 46.2436C21.8784 45.4465 22.0383 44.3827 22.0383 43.4576C22.0383 42.289 21.654 41.265 20.8873 40.3963C20.1236 39.5308 19.0691 38.9334 17.728 38.6129C16.8287 38.398 15.2603 38.2904 13.0259 38.2904H11.598L11.5871 35.6611H13.0442C14.8811 35.6611 16.2353 35.4931 17.0974 35.156C17.9615 34.8179 18.6445 34.278 19.1485 33.5491C19.6544 32.8174 19.9076 32.0032 19.9076 31.1146C19.9076 29.9156 19.4878 28.9687 18.6403 28.2845C17.7921 27.5997 16.442 27.2621 14.5932 27.2621H11.532V30.3343L8.96048 30.3342V24.7058H14.1586C16.2525 24.7058 17.8624 24.9504 18.9831 25.4422C20.109 25.9361 20.9941 26.6985 21.6464 27.7186C22.2978 28.7371 22.6261 29.8731 22.6261 31.1146C22.6261 32.2832 22.3383 33.3423 21.7689 34.2978C21.1995 35.2534 20.3608 36.0262 19.2586 36.6227C20.6301 37.0853 21.6805 37.6304 22.4179 38.2538C23.1558 38.8777 23.7271 39.6299 24.1383 40.518C24.5473 41.4007 24.7567 42.362 24.7567 43.3967C24.7567 45.5026 23.985 47.2862 22.4362 48.7404C20.8874 50.1947 18.8111 50.9254 16.2035 50.9254H8.96048L9.0003 48.5877L11.7175 48.5686ZM38.6714 50.9254C34.3247 50.8992 30.9704 49.4435 28.4559 46.5533C26.3214 44.0999 25.2552 41.1244 25.2552 37.6466C25.2552 27.6462 35.841 21.8361 44.7684 26.0341C45.821 26.5291 46.8596 27.0474 47.5996 27.8709C46.7535 28.7803 46.927 28.608 45.8321 29.7158C45.1204 29.1049 44.341 28.5977 43.4951 28.194C36.1532 24.6911 27.9186 29.8715 27.9186 37.8498C27.9186 40.9038 28.9686 43.4543 31.0726 45.4908C33.1063 47.459 35.8655 48.4466 38.7118 48.6012C38.737 49.4708 38.6626 49.9783 38.6714 50.9254ZM9.11301 50.9259H0L0.0113681 0H55L54.9886 50.9259H38.5792L38.6117 48.5989H52.6211V2.19756H2.39025V48.5989H9.10228L9.11301 50.9259Z" fill="white"/>
</svg>
