<svg width="78" height="110" viewBox="0 0 78 110" fill="none" xmlns="http://www.w3.org/2000/svg">
<g opacity="0.5" filter="url(#filter0_f_717_157)">
<ellipse cx="39" cy="100" rx="30" ry="5" fill="#111111"/>
</g>
<path d="M77.3359 39.1679C77.3359 49.005 73.6145 57.9728 67.5027 64.7405C60.5177 72.4751 39.1679 94.5115 39.1679 94.5115C39.1679 94.5115 17.8181 72.4751 10.8331 64.7405C4.72138 57.9728 1 49.005 1 39.1679C1 18.0884 18.0884 1 39.1679 1C60.2475 1 77.3359 18.0884 77.3359 39.1679Z" fill="#602912" stroke="white"/>
<path d="M12.4504 51.2127H13.2197C13.5292 51.2127 13.7671 51.2498 13.9333 51.3241C14.0996 51.3966 14.2304 51.5089 14.3259 51.661C14.4232 51.8131 14.4718 51.982 14.4718 52.1677C14.4718 52.341 14.4294 52.4993 14.3445 52.6425C14.2596 52.784 14.1349 52.899 13.9705 52.9874C14.1738 53.0564 14.3304 53.1377 14.44 53.2315C14.5497 53.3234 14.6346 53.4357 14.6947 53.5684C14.7566 53.6993 14.7875 53.8416 14.7875 53.9955C14.7875 54.3085 14.6726 54.5738 14.4427 54.7913C14.2145 55.0071 13.9077 55.115 13.5221 55.115H12.4504V51.2127ZM12.8324 51.5947V52.8442H13.0552C13.3258 52.8442 13.5248 52.8194 13.6521 52.7699C13.7795 52.7186 13.8803 52.639 13.9545 52.5311C14.0288 52.4215 14.066 52.3003 14.066 52.1677C14.066 51.9891 14.0032 51.8493 13.8776 51.7485C13.7538 51.646 13.5557 51.5947 13.2834 51.5947H12.8324ZM12.8324 53.2368V54.733H13.3152C13.5999 54.733 13.8086 54.7056 13.9413 54.6507C14.0739 54.5941 14.18 54.5066 14.2596 54.3881C14.341 54.2696 14.3816 54.1414 14.3816 54.0034C14.3816 53.8301 14.3251 53.6789 14.2119 53.5498C14.0987 53.4207 13.943 53.3323 13.745 53.2845C13.6123 53.2527 13.3815 53.2368 13.0526 53.2368H12.8324Z" fill="white"/>
<path d="M17.3279 51.2127H19.5642V51.5973H17.7179V52.8176H19.5483V53.1996H17.7179V54.7303H19.5483V55.115H17.3279V51.2127Z" fill="white"/>
<path d="M21.6006 54.3881L21.9322 54.1891C22.1656 54.6189 22.4353 54.8338 22.7413 54.8338C22.8722 54.8338 22.9951 54.8037 23.11 54.7436C23.225 54.6817 23.3125 54.5995 23.3727 54.4969C23.4328 54.3943 23.4629 54.2855 23.4629 54.1706C23.4629 54.0397 23.4186 53.9115 23.3302 53.7859C23.2082 53.6126 22.9853 53.4039 22.6617 53.1598C22.3363 52.914 22.1338 52.7363 22.0542 52.6266C21.9162 52.4427 21.8473 52.2437 21.8473 52.0297C21.8473 51.86 21.8879 51.7052 21.9693 51.5655C22.0507 51.4258 22.1647 51.3161 22.3115 51.2365C22.4601 51.1552 22.621 51.1145 22.7943 51.1145C22.9783 51.1145 23.1498 51.1605 23.309 51.2524C23.4699 51.3426 23.6397 51.5098 23.8183 51.7538L23.5 51.9952C23.3532 51.8007 23.2276 51.6725 23.1233 51.6106C23.0207 51.5487 22.9084 51.5177 22.7864 51.5177C22.629 51.5177 22.4999 51.5655 22.3991 51.661C22.3 51.7565 22.2505 51.8741 22.2505 52.0138C22.2505 52.0987 22.2682 52.1809 22.3036 52.2605C22.3389 52.3401 22.4035 52.4268 22.4972 52.5205C22.5485 52.57 22.7165 52.7 23.0013 52.9105C23.3391 53.1598 23.5707 53.3818 23.6963 53.5763C23.8219 53.7709 23.8847 53.9663 23.8847 54.1626C23.8847 54.4456 23.7768 54.6914 23.561 54.9001C23.347 55.1088 23.0861 55.2131 22.7784 55.2131C22.5414 55.2131 22.3266 55.1504 22.1338 55.0248C21.941 54.8975 21.7633 54.6852 21.6006 54.3881Z" fill="white"/>
<path d="M26.0881 51.592V51.2127H28.2289V51.592H27.3588V55.115H26.9609V51.592H26.0881Z" fill="white"/>
<path d="M37.4614 51.9369L37.1536 52.173C36.9839 51.9519 36.7796 51.7848 36.5408 51.6716C36.3038 51.5566 36.043 51.4992 35.7582 51.4992C35.447 51.4992 35.1587 51.5743 34.8934 51.7247C34.6281 51.8732 34.4221 52.0739 34.2753 52.3269C34.1303 52.578 34.0578 52.861 34.0578 53.1758C34.0578 53.6515 34.2205 54.0485 34.5459 54.3669C34.8731 54.6852 35.2851 54.8444 35.7821 54.8444C36.3286 54.8444 36.7858 54.6304 37.1536 54.2024L37.4614 54.4359C37.2668 54.6835 37.0236 54.8753 36.7318 55.0115C36.4418 55.1459 36.1173 55.2131 35.7582 55.2131C35.0756 55.2131 34.537 54.9859 34.1427 54.5314C33.8119 54.1476 33.6466 53.6842 33.6466 53.1413C33.6466 52.57 33.8464 52.0899 34.2461 51.7008C34.6476 51.3099 35.1499 51.1145 35.7529 51.1145C36.1173 51.1145 36.4462 51.187 36.7398 51.332C37.0334 51.4753 37.2739 51.6769 37.4614 51.9369Z" fill="white"/>
<path d="M40.0123 51.2127H40.405V54.7383H41.9038V55.115H40.0123V51.2127Z" fill="white"/>
<path d="M46.1473 51.1145C46.738 51.1145 47.2323 51.3117 47.6302 51.7061C48.0282 52.1005 48.2271 52.5859 48.2271 53.1625C48.2271 53.7337 48.0282 54.2183 47.6302 54.6163C47.2341 55.0142 46.7504 55.2131 46.1791 55.2131C45.6008 55.2131 45.1127 55.0151 44.7148 54.6189C44.3168 54.2227 44.1179 53.7435 44.1179 53.1811C44.1179 52.8061 44.2081 52.4586 44.3885 52.1385C44.5706 51.8184 44.8182 51.5681 45.1313 51.3877C45.4443 51.2056 45.783 51.1145 46.1473 51.1145ZM46.1659 51.4965C45.8776 51.4965 45.6043 51.5717 45.3461 51.722C45.0879 51.8723 44.8863 52.0748 44.7413 52.3295C44.5963 52.5842 44.5238 52.868 44.5238 53.1811C44.5238 53.6444 44.6838 54.0362 45.0039 54.3563C45.3258 54.6746 45.7131 54.8338 46.1659 54.8338C46.4683 54.8338 46.7477 54.7604 47.0042 54.6136C47.2624 54.4668 47.4631 54.2661 47.6064 54.0114C47.7514 53.7567 47.8239 53.4738 47.8239 53.1625C47.8239 52.853 47.7514 52.5736 47.6064 52.3242C47.4631 52.0731 47.2606 51.8723 46.9989 51.722C46.7371 51.5717 46.4594 51.4965 46.1659 51.4965Z" fill="white"/>
<path d="M50.3722 54.3881L50.7038 54.1891C50.9373 54.6189 51.207 54.8338 51.5129 54.8338C51.6438 54.8338 51.7667 54.8037 51.8817 54.7436C51.9966 54.6817 52.0842 54.5995 52.1443 54.4969C52.2044 54.3943 52.2345 54.2855 52.2345 54.1706C52.2345 54.0397 52.1903 53.9115 52.1019 53.7859C51.9798 53.6126 51.757 53.4039 51.4333 53.1598C51.1079 52.914 50.9054 52.7363 50.8258 52.6266C50.6879 52.4427 50.6189 52.2437 50.6189 52.0297C50.6189 51.86 50.6596 51.7052 50.741 51.5655C50.8223 51.4258 50.9364 51.3161 51.0832 51.2365C51.2317 51.1552 51.3927 51.1145 51.566 51.1145C51.7499 51.1145 51.9215 51.1605 52.0806 51.2524C52.2416 51.3426 52.4114 51.5098 52.59 51.7538L52.2716 51.9952C52.1249 51.8007 51.9993 51.6725 51.8949 51.6106C51.7924 51.5487 51.6801 51.5177 51.558 51.5177C51.4006 51.5177 51.2715 51.5655 51.1707 51.661C51.0717 51.7565 51.0222 51.8741 51.0222 52.0138C51.0222 52.0987 51.0398 52.1809 51.0752 52.2605C51.1106 52.3401 51.1751 52.4268 51.2689 52.5205C51.3202 52.57 51.4882 52.7 51.7729 52.9105C52.1107 53.1598 52.3424 53.3818 52.468 53.5763C52.5935 53.7709 52.6563 53.9663 52.6563 54.1626C52.6563 54.4456 52.5484 54.6914 52.3327 54.9001C52.1187 55.1088 51.8578 55.2131 51.5501 55.2131C51.3131 55.2131 51.0982 55.1504 50.9054 55.0248C50.7127 54.8975 50.5349 54.6852 50.3722 54.3881Z" fill="white"/>
<path d="M55.2497 51.2127H57.4861V51.5973H55.6397V52.8176H57.4701V53.1996H55.6397V54.7303H57.4701V55.115H55.2497V51.2127Z" fill="white"/>
<path d="M59.5383 51.592V51.2127H61.6791V51.592H60.809V55.115H60.4111V51.592H59.5383Z" fill="white"/>
<path d="M63.6014 54.3881L63.933 54.1891C64.1665 54.6189 64.4362 54.8338 64.7421 54.8338C64.873 54.8338 64.9959 54.8037 65.1109 54.7436C65.2258 54.6817 65.3134 54.5995 65.3735 54.4969C65.4336 54.3943 65.4637 54.2855 65.4637 54.1706C65.4637 54.0397 65.4195 53.9115 65.331 53.7859C65.209 53.6126 64.9862 53.4039 64.6625 53.1598C64.3371 52.914 64.1346 52.7363 64.055 52.6266C63.9171 52.4427 63.8481 52.2437 63.8481 52.0297C63.8481 51.86 63.8888 51.7052 63.9701 51.5655C64.0515 51.4258 64.1656 51.3161 64.3124 51.2365C64.4609 51.1552 64.6219 51.1145 64.7952 51.1145C64.9791 51.1145 65.1507 51.1605 65.3098 51.2524C65.4708 51.3426 65.6405 51.5098 65.8192 51.7538L65.5008 51.9952C65.354 51.8007 65.2285 51.6725 65.1241 51.6106C65.0215 51.5487 64.9092 51.5177 64.7872 51.5177C64.6298 51.5177 64.5007 51.5655 64.3999 51.661C64.3009 51.7565 64.2513 51.8741 64.2513 52.0138C64.2513 52.0987 64.269 52.1809 64.3044 52.2605C64.3398 52.3401 64.4043 52.4268 64.4981 52.5205C64.5493 52.57 64.7174 52.7 65.0021 52.9105C65.3399 53.1598 65.5716 53.3818 65.6971 53.5763C65.8227 53.7709 65.8855 53.9663 65.8855 54.1626C65.8855 54.4456 65.7776 54.6914 65.5618 54.9001C65.3479 55.1088 65.087 55.2131 64.7793 55.2131C64.5423 55.2131 64.3274 55.1504 64.1346 55.0248C63.9418 54.8975 63.7641 54.6852 63.6014 54.3881Z" fill="white"/>
<path d="M30.254 43.4714H31.9957C33.0436 43.4714 33.8127 43.3701 34.3009 43.1672C34.7904 42.9637 35.1825 42.6413 35.4785 42.2082C35.7744 41.7751 35.8613 41.1972 35.8613 40.6946C35.8613 40.0597 35.6525 39.5033 35.236 39.0313C34.8211 38.5611 34.2481 38.2366 33.5195 38.0624C33.0309 37.9457 32.1788 37.8872 30.9648 37.8872H30.189L30.1831 36.4587H30.9748C31.9728 36.4587 32.7085 36.3675 33.1769 36.1843C33.6464 36.0006 34.0174 35.7073 34.2912 35.3113C34.5661 34.9138 34.7037 34.4714 34.7037 33.9886C34.7037 33.3372 34.4756 32.8227 34.0151 32.451C33.5544 32.0789 32.8208 31.8955 31.8164 31.8955H30.1532V33.5647L28.7561 33.5646V30.5067H31.5802C32.7178 30.5067 33.5925 30.6396 34.2014 30.9068C34.8131 31.1751 35.294 31.5893 35.6484 32.1435C36.0023 32.6969 36.1807 33.3141 36.1807 33.9886C36.1807 34.6235 36.0243 35.1989 35.7149 35.7181C35.4055 36.2372 34.9499 36.6571 34.3511 36.9812C35.0962 37.2325 35.6669 37.5286 36.0675 37.8674C36.4684 38.2063 36.7788 38.615 37.0023 39.0975C37.2244 39.5771 37.3382 40.0993 37.3382 40.6615C37.3382 41.8056 36.9189 42.7747 36.0775 43.5648C35.236 44.3549 34.108 44.7519 32.6913 44.7519H28.7561L28.7777 43.4818L30.254 43.4714ZM44.8981 44.7519C42.5365 44.7376 40.7141 43.9467 39.348 42.3765C38.1883 41.0436 37.6091 39.427 37.6091 37.5374C37.6091 32.1042 43.3603 28.9476 48.2106 31.2284C48.7825 31.4973 49.3468 31.7789 49.7488 32.2263C49.2891 32.7204 49.3834 32.6268 48.7885 33.2286C48.4018 32.8967 47.9784 32.6211 47.5188 32.4018C43.53 30.4987 39.0561 33.3132 39.0561 37.6478C39.0561 39.3071 39.6266 40.6928 40.7697 41.7992C41.8746 42.8686 43.3737 43.4051 44.92 43.4891C44.9337 43.9615 44.8933 44.2373 44.8981 44.7519ZM28.839 44.7521H23.8878L23.894 17.084H53.7694L53.7633 44.7521H44.848L44.8656 43.4878H52.477V18.2779H25.1865V43.4878H28.8331L28.839 44.7521Z" fill="white"/>
<defs>
<filter id="filter0_f_717_157" x="4" y="90" width="70" height="20" filterUnits="userSpaceOnUse" color-interpolation-filters="sRGB">
<feFlood flood-opacity="0" result="BackgroundImageFix"/>
<feBlend mode="normal" in="SourceGraphic" in2="BackgroundImageFix" result="shape"/>
<feGaussianBlur stdDeviation="2.5" result="effect1_foregroundBlur_717_157"/>
</filter>
</defs>
</svg>
