<svg width="30" height="30" viewBox="0 0 30 30" fill="none" xmlns="http://www.w3.org/2000/svg">
<path d="M15.0176 0C6.75858 0 0.0352266 6.71756 0.0322266 14.9766C0.0307266 17.6166 0.722203 20.1938 2.0332 22.4648L0 30L7.84863 28.1455C10.0371 29.3395 12.5008 29.9663 15.0088 29.9678H15.0146C23.2721 29.9678 29.9926 23.2487 29.9971 14.9912C30.0001 10.9877 28.4433 7.2236 25.6143 4.3916C22.7853 1.5611 19.0256 0.0015 15.0176 0ZM15.0146 3C18.2186 3.0015 21.2297 4.2507 23.4932 6.5127C25.7567 8.7777 27.0001 11.7873 26.9971 14.9883C26.9941 21.5943 21.6207 26.9678 15.0117 26.9678C13.0122 26.9663 11.0316 26.4642 9.28711 25.5117L8.27637 24.9609L7.16016 25.2246L4.20703 25.9219L4.92773 23.2441L5.25293 22.043L4.63184 20.9648C3.58484 19.1528 3.03073 17.0811 3.03223 14.9766C3.03523 8.37356 8.41015 3 15.0146 3ZM9.71484 8.0625C9.46434 8.0625 9.05932 8.15625 8.71582 8.53125C8.37232 8.90475 7.40332 9.80937 7.40332 11.6514C7.40332 13.4934 8.74512 15.2739 8.93262 15.5244C9.11862 15.7734 11.5226 19.6729 15.3281 21.1729C18.4901 22.4194 19.1323 22.1734 19.8193 22.1104C20.5063 22.0489 22.0357 21.2065 22.3477 20.332C22.6597 19.4575 22.6604 18.7053 22.5674 18.5508C22.4744 18.3948 22.2246 18.3018 21.8496 18.1143C21.4761 17.9268 19.6355 17.0229 19.292 16.8984C18.9485 16.7739 18.6972 16.7109 18.4482 17.0859C18.1992 17.4609 17.4836 18.3018 17.2646 18.5508C17.0456 18.8013 16.8281 18.835 16.4531 18.6475C16.0781 18.4585 14.8724 18.0621 13.4414 16.7871C12.3284 15.7956 11.5774 14.5723 11.3584 14.1973C11.1409 13.8238 11.3379 13.6186 11.5254 13.4326C11.6934 13.2646 11.8975 12.9954 12.085 12.7764C12.271 12.5574 12.3355 12.4013 12.46 12.1523C12.5845 11.9033 12.5207 11.6836 12.4277 11.4961C12.3347 11.3086 11.6064 9.45975 11.2734 8.71875C10.9929 8.09625 10.6967 8.08179 10.4297 8.07129C10.2122 8.06229 9.96384 8.0625 9.71484 8.0625Z" fill="white"/>
</svg>
