<svg width="34" height="30" viewBox="0 0 34 30" fill="none" xmlns="http://www.w3.org/2000/svg">
<path d="M31.1834 0.00257756C30.7405 0.0221179 30.3279 0.151127 29.9646 0.297974C29.6243 0.434862 28.3241 0.99252 26.2761 1.87076C24.2264 2.74977 21.5123 3.91501 18.6171 5.16005C12.8267 7.65012 6.31676 10.4531 2.98235 11.8876C2.85697 11.9416 2.41947 12.0813 1.95511 12.4438C1.49076 12.8064 0.99707 13.5575 0.99707 14.3945C0.99707 15.0695 1.31872 15.74 1.72359 16.1403C2.12845 16.5406 2.55685 16.7384 2.9238 16.8881C4.25524 17.4314 8.38462 19.1212 9.1644 19.4402C9.43882 20.2809 10.9335 24.853 11.2801 25.9736C11.5086 26.713 11.7261 27.1761 12.0093 27.5437C12.1508 27.7275 12.3154 27.8885 12.5149 28.0147C12.5946 28.0652 12.682 28.104 12.7704 28.1398L12.7757 28.1425C12.796 28.1506 12.8136 28.1645 12.8342 28.1717C12.8732 28.1854 12.8992 28.187 12.9513 28.1983C13.1589 28.2654 13.3684 28.3075 13.5554 28.3075C14.3527 28.3075 14.8408 27.8684 14.8408 27.8684L14.8701 27.8471L18.971 24.2996L23.9449 29.0047C24.0149 29.1037 24.6681 30 26.1085 30C26.9637 30 27.6422 29.5708 28.0778 29.1138C28.5134 28.6568 28.7847 28.1766 28.9001 27.573V27.5703C29.008 26.9998 33.5919 3.4675 33.5919 3.4675L33.5839 3.49944C33.7181 2.88695 33.7532 2.31655 33.6052 1.75367C33.4571 1.19079 33.067 0.651854 32.5833 0.361844C32.0996 0.0718982 31.6263 -0.0169629 31.1834 0.00257756ZM30.928 2.8501C30.9214 2.88986 30.9329 2.86987 30.9226 2.91663L30.92 2.9326L30.9173 2.94856C30.9173 2.94856 26.3902 26.1799 26.2229 27.0647C26.2351 26.9978 26.1792 27.1307 26.1218 27.211C26.0406 27.1551 25.8743 27.0833 25.8743 27.0833L25.8477 27.054L19.0535 20.6271L14.25 24.7787L15.6791 19.057C15.6791 19.057 24.6122 9.80986 25.1504 9.27165C25.5837 8.84109 25.6747 8.69099 25.6747 8.54247C25.6747 8.34354 25.571 8.19918 25.3394 8.19918C25.1309 8.19918 24.8506 8.40186 24.7007 8.49723C22.748 9.74199 14.1754 14.7383 10.3327 16.9733C9.722 16.7233 5.47941 14.9867 4.04152 14.3998C4.05241 14.3951 4.04882 14.3968 4.06015 14.3919C7.39543 12.9569 13.9027 10.154 19.6922 7.66427C22.587 6.41941 25.3032 5.25328 27.3513 4.37498C29.3678 3.51021 30.769 2.91505 30.928 2.8501Z" fill="white"/>
</svg>
